<?xml version="1.0" encoding="utf-8"?>
<!-- Generator: Adobe Illustrator 25.4.1, SVG Export Plug-In . SVG Version: 6.00 Build 0)  -->
<svg version="1.1" xmlns="http://www.w3.org/2000/svg" xmlns:xlink="http://www.w3.org/1999/xlink" x="0px" y="0px"
	 viewBox="0 0 250 250" style="enable-background:new 0 0 250 250;" xml:space="preserve">
<style type="text/css">
	.st0{fill:none;}
	.st1{display:none;}
	.st2{display:inline;}
</style>
<g id="Camada_1">
	<g>
		<path d="M58.07,125.07c0-11.34,0.07-22.69-0.04-34.03c-0.03-3.18,1.04-5.22,3.89-6.85c19.86-11.33,39.67-22.75,59.42-34.26
			c2.61-1.52,4.66-1.56,7.28-0.03c19.75,11.51,39.56,22.93,59.42,34.26c2.83,1.62,3.94,3.65,3.93,6.83
			c-0.07,22.69-0.08,45.37,0.01,68.06c0.01,3.33-1.21,5.36-4.12,7.02c-19.61,11.18-39.16,22.45-58.66,33.82
			c-2.97,1.73-5.36,1.77-8.36,0.02c-19.57-11.43-39.21-22.75-58.9-33.98c-2.85-1.63-3.93-3.67-3.9-6.84
			C58.14,147.76,58.07,136.42,58.07,125.07z M70.73,93.15c7.86,13.66,15.47,26.89,23.32,40.55c7.74-13.68,15.25-26.95,22.94-40.55
			C101.42,93.15,86.33,93.15,70.73,93.15z M146.59,138.7c-7.27-13.65-14.37-26.97-21.71-40.75c-7.77,13.72-15.34,27.09-23.08,40.75
			C116.83,138.7,131.46,138.7,146.59,138.7z M132.76,93.14c7.14,13.41,14.12,26.52,21.36,40.12c7.39-13.65,14.49-26.77,21.71-40.12
			C161.26,93.14,147.23,93.14,132.76,93.14z M145.97,148.23c-14.72,0-28.89,0-43.52,0c7.55,13.11,14.88,25.82,22.42,38.9
			C132.01,173.98,138.91,161.25,145.97,148.23z M182.55,153.55c0-17.89,0-35.27,0-53.41c-7.56,13.9-14.74,27.12-22,40.48
			C167.99,144.99,175.11,149.18,182.55,153.55z M177.61,161.31c-7.33-4.31-14.27-8.39-21.44-12.6
			c-6.47,11.95-12.85,23.72-19.22,35.49c0.15,0.14,0.31,0.28,0.46,0.41C150.67,176.92,163.94,169.23,177.61,161.31z M87.97,141.5
			c-6.8-11.78-13.48-23.35-20.57-35.65c0,16.39,0,31.84,0,47.72C74.4,149.46,81.09,145.53,87.97,141.5z M72.36,161.32
			c13.55,7.83,26.52,15.33,39.5,22.83c0.12-0.18,0.24-0.36,0.36-0.54c-6.51-11.31-13.03-22.62-19.67-34.16
			C85.82,153.41,79.3,157.24,72.36,161.32z M120.31,61.17c-12.98,7.48-25.55,14.73-38.89,22.41c13.55,0,26.15,0,38.89,0
			C120.31,76.19,120.31,68.99,120.31,61.17z M129.69,83.61c12.89,0,25.42,0,37.94,0c0.06-0.16,0.12-0.32,0.18-0.48
			c-12.62-7.27-25.25-14.54-38.12-21.95C129.69,69.02,129.69,76.21,129.69,83.61z"/>
		<rect x="0" class="st0" width="250" height="250"/>
	</g>
</g>
<g id="Camada_2" class="st1">
	<path class="st2" d="M92.14,152.1c1.77,0,3.31,0,5.06,0c-0.58-8.07-1.15-15.99-1.71-23.9c-1.08-15.19-2.12-30.38-3.25-45.57
		c-0.17-2.33,0.58-4.08,2.18-5.68c8.64-8.61,17.23-17.28,25.87-25.89c3.08-3.07,5.99-3.04,9.08,0.04
		c8.58,8.56,17.12,17.17,25.72,25.72c1.73,1.72,2.52,3.6,2.32,6.08c-1.03,13.21-1.98,26.43-2.94,39.65
		c-0.7,9.74-1.37,19.48-2.07,29.45c1.61,0,3.14,0,5.06,0c0-1.59-0.07-3.3,0.02-5c0.12-2.46,1.19-4.39,3.58-5.31
		c2.21-0.84,4.15-0.25,5.79,1.4c0.26,0.27,0.5,0.58,0.69,0.9c2.77,4.71,0.54,14.41-4.27,17.12c-2.01,1.13-4.54,1.7-6.87,1.85
		c-4.38,0.29-8.79,0.15-13.18,0.05c-1.69-0.04-2.21,0.47-2.19,2.18c0.08,9.7,0.04,19.4,0.04,29.1c0,4.9-1.98,6.89-6.85,6.9
		c-6.14,0.01-12.28,0-18.41,0c-5.49,0-7.27-1.74-7.27-7.15c-0.01-9.55-0.06-19.1,0.04-28.64c0.02-1.96-0.62-2.43-2.46-2.38
		c-4.32,0.12-8.64,0.07-12.96,0.03c-7.39-0.06-11.87-4.56-11.9-11.94c-0.01-1.81-0.04-3.65,0.26-5.43c0.43-2.61,2.87-4.49,5.31-4.4
		c2.55,0.09,4.67,1.97,5.11,4.64c0.17,1.04,0.16,2.11,0.2,3.17C92.16,150.07,92.14,151.03,92.14,152.1z M131.01,67.47
		c-0.22,0.18-0.43,0.36-0.65,0.53c0,28.02,0,56.04,0,84.12c3.78,0,7.38,0,10.99,0c0.09-0.33,0.18-0.53,0.2-0.75
		c1.65-22.12,3.32-44.25,4.9-66.38c0.06-0.81-0.48-1.87-1.08-2.49c-3.69-3.81-7.49-7.5-11.21-11.28
		C133.01,70.06,132.05,68.72,131.01,67.47z M119.11,152.12c0-28.19,0-56.26,0-84.88c-5.34,5.39-10.31,10.37-15.2,15.42
		c-0.49,0.51-0.76,1.47-0.72,2.21c0.2,4.16,0.51,8.31,0.81,12.46c0.97,13.44,1.95,26.88,2.94,40.31c0.35,4.81,0.75,9.62,1.13,14.48
		C111.88,152.12,115.48,152.12,119.11,152.12z M130.29,190.31c0-8.71-0.02-17.18,0.02-25.64c0.01-1.38-0.65-1.63-1.82-1.61
		c-2.34,0.05-4.7,0.14-7.03-0.02c-1.9-0.13-2.26,0.63-2.24,2.35c0.08,7.64,0.03,15.28,0.04,22.93c0,0.65,0.08,1.3,0.13,1.99
		C123.08,190.31,126.54,190.31,130.29,190.31z"/>
</g>
<g id="Camada_3" class="st1">
	<path class="st2" d="M186.42,89.99c0,7.28,0.04,14.56-0.03,21.84c-0.02,1.99-0.3,3.99-0.55,5.97c-0.34,2.7-0.72,5.41-1.19,8.09
		c-0.46,2.59-1,5.17-1.62,7.72c-0.43,1.75-1.03,3.47-1.59,5.19c-0.53,1.63-1.05,3.26-1.66,4.86c-0.73,1.93-1.51,3.85-2.32,5.74
		c-0.72,1.66-1.5,3.29-2.29,4.91c-0.48,0.99-1.01,1.96-1.57,2.91c-1.22,2.09-2.39,4.21-3.71,6.24c-1.61,2.48-3.25,4.96-5.05,7.3
		c-2.01,2.61-4.08,5.19-6.35,7.56c-3.04,3.18-6.16,6.3-9.49,9.17c-2.95,2.54-6.17,4.79-9.37,7c-2.51,1.73-5.19,3.2-7.77,4.83
		c-2.67,1.7-5.6,2.13-8.66,1.78c-2.09-0.24-4.03-1.01-5.82-2.16c-1.66-1.06-3.42-1.98-5.08-3.03c-1.41-0.89-2.78-1.84-4.12-2.83
		c-2.45-1.82-4.95-3.58-7.29-5.55c-3.37-2.83-6.5-5.94-9.48-9.19c-3.51-3.82-6.77-7.84-9.66-12.14c-1.8-2.69-3.37-5.53-4.98-8.35
		c-1.07-1.87-2.08-3.79-3.02-5.73c-0.85-1.75-1.59-3.55-2.33-5.35c-0.8-1.98-1.58-3.97-2.29-5.98c-0.57-1.61-1.08-3.26-1.53-4.91
		c-0.68-2.52-1.31-5.05-1.9-7.59c-0.31-1.33-0.54-2.68-0.73-4.03c-0.33-2.47-0.58-4.95-0.91-7.42c-0.87-6.59-0.51-13.22-0.55-19.83
		c-0.06-10.06,0-20.12-0.02-30.18c0-1.46,0.46-2.72,1.36-3.84c0.84-1.05,2-1.62,3.27-1.94c1.59-0.41,3.2-0.75,4.81-1.11
		c1.42-0.32,2.85-0.61,4.28-0.92c1.33-0.29,2.67-0.57,4-0.86c2.8-0.61,5.6-1.23,8.4-1.86c2.5-0.56,4.99-1.17,7.49-1.72
		c2.39-0.53,4.78-1.03,7.17-1.54c1.36-0.29,2.71-0.59,4.07-0.89c2.69-0.59,5.37-1.19,8.06-1.79c2.25-0.5,4.49-1.09,6.76-1.46
		c1.23-0.2,2.54-0.19,3.76,0.01c2.48,0.41,4.93,1,7.39,1.54c2.43,0.54,4.86,1.12,7.29,1.66c1.51,0.34,3.04,0.64,4.55,0.97
		c1.13,0.24,2.25,0.48,3.38,0.73c2.41,0.55,4.81,1.13,7.22,1.66c2.53,0.56,5.06,1.07,7.59,1.62c2.43,0.54,4.86,1.12,7.29,1.67
		c1.49,0.33,2.99,0.62,4.48,0.95c2.07,0.45,4.17,0.79,6.18,1.43c2.45,0.78,4.11,2.48,4.16,5.35c0.12,6.31,0.05,12.63,0.06,18.94
		c0,1.51,0,3.02,0,4.52C186.48,89.99,186.45,89.99,186.42,89.99z M174.3,92.72c0.02,0,0.05,0,0.07,0c0-6.53,0-13.05,0-19.58
		c0-1.08-0.12-1.2-1.15-1.4c-1.25-0.24-2.49-0.51-3.72-0.8c-2.45-0.57-4.9-1.16-7.35-1.73c-1.1-0.26-2.2-0.49-3.31-0.73
		c-2.37-0.52-4.73-1.02-7.1-1.55c-2.48-0.56-4.94-1.17-7.42-1.73c-2.7-0.62-5.41-1.23-8.12-1.84c-1.33-0.3-2.67-0.58-4-0.87
		c-1.45-0.32-2.91-0.56-4.33-0.98c-1.91-0.57-3.77-0.6-5.68-0.02c-1.28,0.39-2.6,0.65-3.91,0.94c-1.51,0.33-3.04,0.62-4.56,0.95
		c-1.7,0.37-3.39,0.76-5.09,1.15c-1.35,0.31-2.71,0.62-4.06,0.93c-1.37,0.32-2.74,0.66-4.12,0.96c-2.46,0.55-4.92,1.07-7.37,1.62
		c-1.65,0.37-3.3,0.75-4.95,1.12c-1.33,0.3-2.66,0.6-3.99,0.9c-2.45,0.56-4.9,1.14-7.36,1.68c-1.03,0.23-1.16,0.32-1.16,1.39
		c0,11.07-0.02,22.14,0.02,33.22c0.01,2.52,0.12,5.04,0.33,7.55c0.22,2.65,0.55,5.29,0.97,7.91c0.42,2.62,0.96,5.23,1.57,7.81
		c0.45,1.92,1.06,3.8,1.67,5.67c0.7,2.16,1.42,4.32,2.25,6.44c0.69,1.77,1.49,3.49,2.32,5.2c1.18,2.43,2.31,4.89,3.67,7.21
		c1.63,2.77,3.41,5.46,5.26,8.1c2.85,4.05,6.04,7.82,9.58,11.29c3.63,3.56,7.44,6.93,11.63,9.83c2.76,1.91,5.61,3.69,8.45,5.48
		c0.82,0.51,1.81,0.51,2.62,0.03c2.26-1.35,4.48-2.76,6.68-4.2c3.71-2.43,7.16-5.18,10.42-8.18c4.5-4.16,8.75-8.56,12.33-13.56
		c2.61-3.65,5.16-7.34,7.29-11.3c1.68-3.13,3.28-6.28,4.55-9.59c1.06-2.76,2.04-5.55,3.02-8.34c0.3-0.84,0.55-1.7,0.76-2.56
		c0.31-1.25,0.59-2.52,0.84-3.79c0.57-2.86,1.27-5.7,1.65-8.58c0.41-3.1,0.67-6.23,0.74-9.36C174.39,103.84,174.3,98.27,174.3,92.72
		z"/>
</g>
</svg>
