<svg xmlns="http://www.w3.org/2000/svg" width="100" height="61.5" viewBox="0 0 100 61.5">
  <g id="Grupo_4" data-name="Grupo 4" transform="translate(-882 -11)">
    <g id="Grupo_3" data-name="Grupo 3" transform="translate(882 11)">
      <path id="Caminho_14" data-name="Caminho 14" d="M95,4.96V56.54H5V4.96ZM100,0H0V61.5H100Z"/>
      <path id="Caminho_15" data-name="Caminho 15" d="M16.27,15.3H27.02a9,9,0,0,1,4.07.85,8.93,8.93,0,0,1,3.545,3.55,11.5,11.5,0,0,1,1.45,5.9,13.869,13.869,0,0,1-.875,5.05,8.1,8.1,0,0,1-2.03,3,8.806,8.806,0,0,1-3.345,2,13.1,13.1,0,0,1-3.94.5H16.27V35.052h1.97a1.648,1.648,0,0,0,1.035-.24.909.909,0,0,0,.29-.745V17.307a.859.859,0,0,0-.31-.695,1.282,1.282,0,0,0-.86-.26H16.27Zm7.545,1.055a1.365,1.365,0,0,0-.935.265,1,1,0,0,0-.305.8v16.6a.9.9,0,0,0,.355.77,2.08,2.08,0,0,0,1.195.26h1.77a7.192,7.192,0,0,0,4.165-1.225c.8-.576,1.124-.346,1.775-2.3a14.814,14.814,0,0,0,.83-5.5q0-5.205-1.815-7.625a5.485,5.485,0,0,0-4.67-2.04Z" transform="translate(-8.135 -7.647)"/>
      <path id="Caminho_16" data-name="Caminho 16" d="M65.025,33.95q-.645.835,6.39.83a1.839,1.839,0,0,0,1.5-.545,9.536,9.536,0,0,0,1.025-3.04h.975l-.5,5.84H61.83v-.76l4.085-4.66q3.42-3.71,4.11-4.67A10.628,10.628,0,0,0,71.46,24.3a7,7,0,0,0,.45-2.315,3.766,3.766,0,0,0-.955-2.72,3.536,3.536,0,0,0-2.66-1,5.051,5.051,0,0,0-3.125.915,2.535,2.535,0,0,0-1.21,1.945.72.72,0,0,0,.185.535,1.535,1.535,0,0,0,.73.32,1.676,1.676,0,0,1,.92,2.85,1.675,1.675,0,0,1-1.225.47,1.894,1.894,0,0,1-1.5-.795,3.15,3.15,0,0,1-.65-2.075,4.836,4.836,0,0,1,.74-2.61,5.462,5.462,0,0,1,2.255-1.92,7,7,0,0,1,3.21-.755,6.9,6.9,0,0,1,3.155.735,5.181,5.181,0,0,1,2.19,1.92,4.825,4.825,0,0,1,.73,2.6,5.68,5.68,0,0,1-.365,1.97,6.428,6.428,0,0,1-1.065,1.87,17.772,17.772,0,0,1-2.5,2.575L67.06,31.94A14.839,14.839,0,0,0,65.025,33.95Z" transform="translate(-30.915 -8.575)"/>
      <path id="Caminho_17" data-name="Caminho 17" d="M100.64,17.149a5.78,5.78,0,0,1,4.575,2.14q2.265,2.635,2.265,8,0,4.965-1.97,7.56a5.821,5.821,0,0,1-4.755,2.6,5.594,5.594,0,0,1-4.5-2.18Q94,32.5,94,27.324a13.038,13.038,0,0,1,2.125-7.84A5.315,5.315,0,0,1,100.64,17.149Zm.085,1a3.215,3.215,0,0,0-2.9,1.78q-1.045,1.795-1.045,7.395,0,5.475,1.08,7.3a3.269,3.269,0,0,0,2.89,1.83,3.1,3.1,0,0,0,2.815-1.685q1.17-2,1.165-7.345,0-5.5-1.095-7.39a3.3,3.3,0,0,0-2.915-1.87Z" transform="translate(-47 -8.574)"/>
      <path id="Caminho_18" data-name="Caminho 18" d="M20.195,83.96q-.645.83,6.37.83a1.839,1.839,0,0,0,1.5-.545,9.1,9.1,0,0,0,1-3.04h.97l-.455,5.84H17v-.76l4.095-4.66q3.41-3.71,4.1-4.67a10.506,10.506,0,0,0,1.435-2.64A7,7,0,0,0,27.085,72a3.744,3.744,0,0,0-.955-2.72,3.536,3.536,0,0,0-2.66-1,5.051,5.051,0,0,0-3.125.915,2.535,2.535,0,0,0-1.21,1.945.741.741,0,0,0,.185.535,1.535,1.535,0,0,0,.73.32A1.633,1.633,0,0,1,21.5,73.66a1.594,1.594,0,0,1-.5,1.19,1.675,1.675,0,0,1-1.225.47,1.9,1.9,0,0,1-1.5-.795,3.178,3.178,0,0,1-.65-2.075,4.836,4.836,0,0,1,.74-2.61,5.459,5.459,0,0,1,2.23-1.925,7.18,7.18,0,0,1,6.37,0,5.194,5.194,0,0,1,2.185,1.92,4.829,4.829,0,0,1,.735,2.6,5.8,5.8,0,0,1-.385,1.95,6.55,6.55,0,0,1-1.07,1.87,17.774,17.774,0,0,1-2.5,2.575L22.22,81.95A14.85,14.85,0,0,0,20.195,83.96Z" transform="translate(-8.5 -33.585)"/>
      <path id="Caminho_19" data-name="Caminho 19" d="M55.815,67.149a5.78,5.78,0,0,1,4.575,2.14q2.265,2.63,2.265,8,0,4.965-1.97,7.56a5.821,5.821,0,0,1-4.755,2.595,5.594,5.594,0,0,1-4.5-2.18q-2.25-2.745-2.25-7.92a13.038,13.038,0,0,1,2.125-7.84A5.314,5.314,0,0,1,55.815,67.149Zm.085,1a3.215,3.215,0,0,0-2.9,1.78q-1.04,1.795-1.045,7.395,0,5.475,1.08,7.3a3.269,3.269,0,0,0,2.89,1.83,3.1,3.1,0,0,0,2.815-1.685q1.17-2,1.165-7.345,0-5.5-1.1-7.39a3.312,3.312,0,0,0-2.915-1.87Z" transform="translate(-24.59 -33.574)"/>
      <path id="Caminho_20" data-name="Caminho 20" d="M80.38,65.3H91.13a9,9,0,0,1,4.06.85,8.87,8.87,0,0,1,3.54,3.56,11.5,11.5,0,0,1,1.46,5.89,14.009,14.009,0,0,1-.87,5.05,8.117,8.117,0,0,1-2.035,3,8.784,8.784,0,0,1-3.34,1.94,13.133,13.133,0,0,1-3.94.5H80.38V85.032h1.97a1.662,1.662,0,0,0,1.035-.24.925.925,0,0,0,.29-.745V67.307a.859.859,0,0,0-.31-.695,1.3,1.3,0,0,0-.86-.26H80.38Zm7.54,1.055a1.384,1.384,0,0,0-.935.265,1,1,0,0,0-.3.8v16.6a.9.9,0,0,0,.35.77,2.105,2.105,0,0,0,1.195.26H90a7.192,7.192,0,0,0,4.165-1.225,5.06,5.06,0,0,0,1.775-2.3,14.864,14.864,0,0,0,.83-5.5q0-5.205-1.82-7.625a5.485,5.485,0,0,0-4.67-2.04Z" transform="translate(-40.19 -32.647)"/>
    </g>
  </g>
</svg>
