<svg xmlns="http://www.w3.org/2000/svg" width="200" height="123" viewBox="0 0 200 123">
  <g id="Grupo_4" data-name="Grupo 4" transform="translate(-882 -11)">
    <g id="Grupo_3" data-name="Grupo 3" transform="translate(882 11)">
      <path id="Caminho_14" data-name="Caminho 14" d="M190,9.92V113.08H10V9.92ZM200,0H0V123H200Z" fill="#68a1f7"/>
      <path id="Caminho_15" data-name="Caminho 15" d="M16.27,15.3h21.5A18.007,18.007,0,0,1,45.91,17,17.86,17.86,0,0,1,53,24.1a23,23,0,0,1,2.9,11.8A27.739,27.739,0,0,1,54.15,46a16.2,16.2,0,0,1-4.06,6,17.612,17.612,0,0,1-6.69,4,26.2,26.2,0,0,1-7.88,1H16.27V54.81h3.94a3.3,3.3,0,0,0,2.07-.48,1.819,1.819,0,0,0,.58-1.49V19.32a1.718,1.718,0,0,0-.62-1.39,2.564,2.564,0,0,0-1.72-.52H16.27Zm15.09,2.11a2.729,2.729,0,0,0-1.87.53,2,2,0,0,0-.61,1.6V52.75a1.8,1.8,0,0,0,.71,1.54,4.16,4.16,0,0,0,2.39.52h3.54a14.384,14.384,0,0,0,8.33-2.45c1.606-1.151,2.247-.693,3.55-4.59a29.629,29.629,0,0,0,1.66-11q0-10.41-3.63-15.25-3.09-4.08-9.34-4.08Z" transform="translate(0 0)" fill="#68a1f7"/>
      <path id="Caminho_16" data-name="Caminho 16" d="M68.22,50.75Q66.93,52.419,81,52.41a3.678,3.678,0,0,0,3-1.09c.6-.74,1.28-2.76,2.05-6.08H88L87,56.92H61.83V55.4L70,46.08q6.84-7.421,8.22-9.34a21.256,21.256,0,0,0,2.87-5.28,13.992,13.992,0,0,0,.9-4.63,7.531,7.531,0,0,0-1.91-5.44,7.072,7.072,0,0,0-5.32-2,10.1,10.1,0,0,0-6.25,1.83q-2.41,1.83-2.42,3.89a1.441,1.441,0,0,0,.37,1.07,3.07,3.07,0,0,0,1.46.64c1.9.45,2.84,1.56,2.84,3.32a3.229,3.229,0,0,1-1,2.38,3.351,3.351,0,0,1-2.45.94,3.789,3.789,0,0,1-3-1.59,6.3,6.3,0,0,1-1.3-4.15,9.671,9.671,0,0,1,1.48-5.22A10.924,10.924,0,0,1,69,18.66a14,14,0,0,1,6.42-1.51,13.794,13.794,0,0,1,6.31,1.47,10.362,10.362,0,0,1,4.38,3.84,9.65,9.65,0,0,1,1.46,5.19,11.361,11.361,0,0,1-.73,3.94,12.855,12.855,0,0,1-2.13,3.74,35.543,35.543,0,0,1-5,5.15l-7.42,6.25A29.678,29.678,0,0,0,68.22,50.75Z" transform="translate(0 0)" fill="#68a1f7"/>
      <path id="Caminho_17" data-name="Caminho 17" d="M107.28,17.15a11.56,11.56,0,0,1,9.15,4.28q4.53,5.27,4.53,16,0,9.93-3.94,15.12t-9.51,5.19a11.188,11.188,0,0,1-9-4.36Q94,47.849,94,37.5q0-9.851,4.25-15.68A10.63,10.63,0,0,1,107.28,17.15Zm.17,2a6.43,6.43,0,0,0-5.79,3.56Q99.571,26.3,99.57,37.5q0,10.95,2.16,14.6t5.78,3.66a6.19,6.19,0,0,0,5.63-3.37q2.34-4,2.33-14.69,0-11-2.19-14.78c-1.46-2.49-3.41-3.74-5.83-3.74Z" transform="translate(0 0)" fill="#68a1f7"/>
      <path id="Caminho_18" data-name="Caminho 18" d="M23.39,100.75q-1.29,1.66,12.74,1.66a3.678,3.678,0,0,0,3-1.09c.6-.74,1.28-2.76,2-6.08h1.94l-.91,11.68H17V105.4l8.19-9.32q6.82-7.421,8.21-9.34a21.012,21.012,0,0,0,2.87-5.28,13.991,13.991,0,0,0,.9-4.63,7.489,7.489,0,0,0-1.91-5.44,7.072,7.072,0,0,0-5.32-2,10.1,10.1,0,0,0-6.25,1.83q-2.41,1.83-2.42,3.89a1.483,1.483,0,0,0,.37,1.07,3.07,3.07,0,0,0,1.46.64c1.9.46,2.9,1.57,2.9,3.33a3.189,3.189,0,0,1-1,2.38,3.351,3.351,0,0,1-2.45.94,3.809,3.809,0,0,1-3-1.59,6.357,6.357,0,0,1-1.3-4.15,9.671,9.671,0,0,1,1.48-5.22,10.918,10.918,0,0,1,4.46-3.85,14.359,14.359,0,0,1,12.74,0A10.387,10.387,0,0,1,41.3,72.5a9.657,9.657,0,0,1,1.47,5.19,11.594,11.594,0,0,1-.77,3.9,13.1,13.1,0,0,1-2.14,3.74,35.547,35.547,0,0,1-5,5.15l-7.42,6.25A29.7,29.7,0,0,0,23.39,100.75Z" transform="translate(0 0)" fill="#68a1f7"/>
      <path id="Caminho_19" data-name="Caminho 19" d="M62.45,67.15a11.56,11.56,0,0,1,9.15,4.28q4.53,5.261,4.53,16,0,9.93-3.94,15.12t-9.51,5.19a11.188,11.188,0,0,1-9-4.36q-4.5-5.49-4.5-15.84,0-9.85,4.25-15.68A10.627,10.627,0,0,1,62.45,67.15Zm.17,2a6.43,6.43,0,0,0-5.79,3.56Q54.749,76.3,54.74,87.5q0,10.95,2.16,14.6t5.78,3.66a6.19,6.19,0,0,0,5.63-3.37q2.34-4,2.33-14.69,0-11-2.19-14.78C67,70.43,65,69.18,62.62,69.18Z" transform="translate(0 0)" fill="#68a1f7"/>
      <path id="Caminho_20" data-name="Caminho 20" d="M80.38,65.3h21.5A18.006,18.006,0,0,1,110,67a17.74,17.74,0,0,1,7.08,7.12A23,23,0,0,1,120,85.9,28.018,28.018,0,0,1,118.26,96a16.235,16.235,0,0,1-4.07,6,17.569,17.569,0,0,1-6.68,3.88,26.265,26.265,0,0,1-7.88,1H80.38v-2.11h3.94a3.324,3.324,0,0,0,2.07-.48,1.851,1.851,0,0,0,.58-1.49V69.32a1.718,1.718,0,0,0-.62-1.39,2.6,2.6,0,0,0-1.72-.52H80.38Zm15.08,2.11a2.769,2.769,0,0,0-1.87.53,2,2,0,0,0-.6,1.6v33.21a1.792,1.792,0,0,0,.7,1.54,4.21,4.21,0,0,0,2.39.52h3.55a14.384,14.384,0,0,0,8.33-2.45,10.121,10.121,0,0,0,3.55-4.59q1.65-4,1.66-11,0-10.41-3.64-15.25-3.09-4.08-9.34-4.08Z" transform="translate(0 0)" fill="#68a1f7"/>
    </g>
  </g>
</svg>
